<?xml version="1.0" standalone="no"?>
<!DOCTYPE svg PUBLIC "-//W3C//DTD SVG 20010904//EN"
 "http://www.w3.org/TR/2001/REC-SVG-20010904/DTD/svg10.dtd">
<svg version="1.0" xmlns="http://www.w3.org/2000/svg"
 width="260.000000pt" height="260.000000pt" viewBox="0 0 260.000000 260.000000"
 preserveAspectRatio="xMidYMid meet">
<metadata>
Created by potrace 1.11, written by Peter Selinger 2001-2013
</metadata>
<g transform="translate(0.000000,260.000000) scale(0.100000,-0.100000)"
fill="#000000" stroke="none">
<path d="M1260 2489 c-19 -5 -154 -31 -300 -59 -455 -87 -563 -111 -626 -136
-41 -16 -71 -22 -92 -18 -25 5 -32 2 -42 -17 -18 -33 -25 -188 -11 -231 8 -23
51 -73 126 -147 107 -106 115 -116 115 -152 0 -34 -3 -39 -28 -44 -15 -4 -54
-12 -86 -20 -39 -9 -66 -10 -77 -4 -34 18 -49 9 -69 -37 -21 -49 -29 -201 -11
-219 5 -6 31 -50 57 -100 73 -139 418 -784 501 -935 41 -74 85 -145 99 -157
24 -22 26 -22 57 -6 19 10 48 16 72 15 35 -3 455 64 1085 173 243 42 269 56
219 119 -25 32 -56 34 -61 4 -3 -23 -46 -33 -278 -67 -47 -6 -110 -16 -140
-21 -53 -9 -112 -19 -485 -75 -93 -14 -194 -30 -224 -35 -71 -13 -108 -13
-116 1 -4 6 1 16 11 23 9 7 14 18 10 25 -13 21 25 44 80 49 29 2 51 8 48 13
-3 5 30 9 72 9 72 0 91 11 39 23 -11 2 20 2 68 -1 55 -3 96 -1 110 6 12 6 51
13 87 16 36 3 108 10 160 16 110 13 148 14 248 5 68 -7 72 -6 72 13 0 22 43
42 88 42 15 0 52 8 83 17 53 16 57 19 73 62 9 25 16 56 16 69 0 20 11 34 54
70 9 7 16 18 16 24 0 6 -38 50 -85 97 -47 48 -85 92 -85 98 0 7 10 13 23 15
13 2 23 11 25 23 1 11 -31 97 -71 191 -41 95 -72 176 -68 181 3 5 85 31 181
57 96 27 183 52 193 57 31 17 18 43 -41 82 -65 41 -88 47 -77 20 20 -46 13
-56 -55 -74 -36 -9 -119 -31 -185 -49 -66 -18 -176 -47 -245 -65 -160 -42
-418 -109 -539 -141 -75 -20 -100 -23 -119 -15 -15 8 -22 17 -18 29 3 9 8 33
11 52 4 19 15 45 25 58 35 42 82 57 530 167 102 25 235 58 295 74 61 15 137
34 170 41 103 21 112 27 130 80 18 55 26 63 77 79 20 7 39 19 42 27 6 17 4 18
-259 166 -727 407 -804 449 -827 447 -7 -1 -29 -5 -48 -10z m775 -1646 c2 -19
0 -45 -5 -59 l-10 -25 -657 6 c-588 5 -659 8 -685 23 -28 16 -37 32 -18 32 6
0 15 11 20 25 6 16 17 25 32 25 13 0 75 5 138 10 63 5 346 11 628 13 370 3
517 8 525 16 13 13 25 -10 32 -66z"/>
<path d="M2005 530 c3 -5 24 -10 46 -10 24 0 38 4 34 10 -3 6 -24 10 -46 10
-24 0 -38 -4 -34 -10z"/>
<path d="M1724 488 c-3 -4 15 -8 40 -8 25 0 46 5 46 10 0 12 -79 10 -86 -2z"/>
<path d="M1608 463 c7 -3 16 -2 19 1 4 3 -2 6 -13 5 -11 0 -14 -3 -6 -6z"/>
</g>
</svg>
